HIERARCHY
ROOT joint_Root
{
	OFFSET 0.0 0.0 0.0
	CHANNELS 6 Xposition Yposition Zposition Zrotation Xrotation Yrotation 
	JOINT Hips
	{
		OFFSET -17.1583 93.1646 452.98
		CHANNELS 6 Xposition Yposition Zposition Zrotation Xrotation Yrotation 
		JOINT Spine
		{
			OFFSET 15.7357 0.0 0.0
			CHANNELS 6 Xposition Yposition Zposition Zrotation Xrotation Yrotation 
			JOINT Chest
			{
				OFFSET 8.98455 -0.406207 0.0
				CHANNELS 6 Xposition Yposition Zposition Zrotation Xrotation Yrotation 
				JOINT Neck
				{
					OFFSET 16.3773 0.0 0.0
					CHANNELS 6 Xposition Yposition Zposition Zrotation Xrotation Yrotation 
					JOINT Head
					{
						OFFSET 6.45672 0.0 0.0
						CHANNELS 6 Xposition Yposition Zposition Zrotation Xrotation Yrotation 
						End Site
						{
							OFFSET 0.0 0.0 0.0
						}
					}
				}
				JOINT Shoulder_L
				{
					OFFSET 12.9942 -0.242716 4.98039
					CHANNELS 6 Xposition Yposition Zposition Zrotation Xrotation Yrotation 
					JOINT UpperArm_L
					{
						OFFSET 5.34809 0.0 0.0
						CHANNELS 6 Xposition Yposition Zposition Zrotation Xrotation Yrotation 
						JOINT LowerArm_L
						{
							OFFSET 24.3286 1.87007e-05 0.0
							CHANNELS 6 Xposition Yposition Zposition Zrotation Xrotation Yrotation 
							JOINT Hand_L
							{
								OFFSET 22.2916 0.0 0.0
								CHANNELS 6 Xposition Yposition Zposition Zrotation Xrotation Yrotation 
								End Site
								{
									OFFSET 0.0 0.0 0.0
								}
							}
						}
					}
				}
				JOINT Shoulder_R
				{
					OFFSET 12.9945 -0.242716 -4.98039
					CHANNELS 6 Xposition Yposition Zposition Zrotation Xrotation Yrotation 
					JOINT UpperArm_R
					{
						OFFSET -5.34813 0.0 0.0
						CHANNELS 6 Xposition Yposition Zposition Zrotation Xrotation Yrotation 
						JOINT LowerArm_R
						{
							OFFSET -24.3289 0.000322201 0.0
							CHANNELS 6 Xposition Yposition Zposition Zrotation Xrotation Yrotation 
							JOINT Hand_R
							{
								OFFSET -22.2915 -0.000108084 0.0
								CHANNELS 6 Xposition Yposition Zposition Zrotation Xrotation Yrotation 
								End Site
								{
									OFFSET 0.0 0.0 0.0
								}
							}
						}
					}
				}
			}
		}
		JOINT UpperLeg_L
		{
			OFFSET -2.19248 -6.46944 0.0
			CHANNELS 6 Xposition Yposition Zposition Zrotation Xrotation Yrotation 
			JOINT LowerLeg_L
			{
				OFFSET 39.0811 0.0 -1.23785e-05
				CHANNELS 6 Xposition Yposition Zposition Zrotation Xrotation Yrotation 
				JOINT Foot_L
				{
					OFFSET 40.9854 0.0 -1.26872e-05
					CHANNELS 6 Xposition Yposition Zposition Zrotation Xrotation Yrotation 
					JOINT Toes_L
					{
						OFFSET 11.7543 0.0 0.0
						CHANNELS 6 Xposition Yposition Zposition Zrotation Xrotation Yrotation 
						End Site
						{
							OFFSET 0.0 0.0 0.0
						}
					}
				}
			}
		}
		JOINT UpperLeg_R
		{
			OFFSET -2.19251 6.46944 0.0
			CHANNELS 6 Xposition Yposition Zposition Zrotation Xrotation Yrotation 
			JOINT LowerLeg_R
			{
				OFFSET -39.0811 -0.00228153 -0.0401928
				CHANNELS 6 Xposition Yposition Zposition Zrotation Xrotation Yrotation 
				JOINT Foot_R
				{
					OFFSET -40.9854 0.0 0.0
					CHANNELS 6 Xposition Yposition Zposition Zrotation Xrotation Yrotation 
					JOINT Toes_R
					{
						OFFSET -11.7543 0.0 0.0
						CHANNELS 6 Xposition Yposition Zposition Zrotation Xrotation Yrotation 
						End Site
						{
							OFFSET 0.0 0.0 0.0
						}
					}
				}
			}
		}
	}
}
MOTION
Frames:	9
Frame Time:	0.0333333
0.000000 0.000000 0.000000 0.000000 0.000000 -0.000000 150.548000 88.309100 223.743000 -85.016100 65.446600 -179.251000 15.735700 0.000005 -0.000001 113.393000 83.822900 -112.729000 8.984550 -0.406207 -0.000000 3.555670 4.874510 1.176640 16.377300 -0.000001 -0.000001 12.494000 20.774000 -4.507070 6.456720 -0.000001 -0.000000 -11.585300 27.310400 5.987390 12.994200 -0.242716 4.980390 -93.454500 6.322320 -61.269800 5.348090 -0.000007 -0.000001 -58.152600 -21.647000 4.786440 24.328600 0.000019 0.000005 3.294620 28.260100 -6.919420 22.291600 -0.000001 0.000005 -5.789540 4.837970 10.179500 12.994500 -0.242716 -4.980390 87.971400 5.451950 -69.554000 -5.348130 -0.000001 -0.000004 -56.731800 20.354300 -19.711300 -24.328900 0.000322 -0.000009 5.079160 11.397100 -24.236500 -22.291500 -0.000108 -0.000004 -7.369340 5.354480 -1.500570 -2.192480 -6.469440 -0.000000 167.396000 -10.763200 -18.625500 39.081100 -0.000007 -0.000012 0.489973 -0.778537 32.185700 40.985400 -0.000006 -0.000013 16.044400 -0.775326 -65.369500 11.754300 -0.000000 0.000003 0.002206 0.112017 -12.034300 -2.192510 6.469440 -0.000001 168.445000 3.777380 174.751000 -39.081100 -0.002282 -0.040193 0.424731 -0.215982 62.872100 -40.985400 0.000008 0.000006 -19.145800 1.788980 -24.759200 -11.754300 -0.000006 -0.000006 0.000961 0.149517 -10.509700
0.000000 0.000000 0.000000 0.000000 0.000000 -0.000000 153.603000 89.140900 221.802000 -83.729700 61.107100 -178.763000 15.735700 0.000005 -0.000001 107.528000 83.704700 -106.181000 8.984550 -0.406207 -0.000000 4.204770 3.744170 2.555210 16.377300 -0.000001 -0.000001 13.554000 20.007600 -5.545420 6.456720 -0.000001 -0.000000 -10.162900 26.643800 6.655200 12.994200 -0.242716 4.980390 -93.387600 6.381360 -61.961200 5.348090 -0.000007 -0.000001 -64.869600 -8.335650 1.297670 24.328600 0.000019 0.000005 13.020100 41.230900 -19.321600 22.291600 -0.000001 0.000005 -15.947300 5.494160 -6.508430 12.994500 -0.242716 -4.980390 88.009900 5.387190 -69.690300 -5.348130 -0.000001 -0.000004 -56.764600 22.294000 -16.097400 -24.328900 0.000322 -0.000009 5.465740 15.838700 -19.328400 -22.291500 -0.000108 -0.000004 -11.249400 5.316060 -0.375379 -2.192480 -6.469440 -0.000000 168.656000 -9.761110 -12.299600 39.081100 -0.000007 -0.000012 0.453907 -0.801270 29.532100 40.985400 -0.000006 -0.000013 16.526900 1.636980 -66.992500 11.754300 -0.000000 0.000003 0.002115 0.116264 -11.862000 -2.192510 6.469440 -0.000001 169.638000 3.514040 170.958000 -39.081100 -0.002282 -0.040193 0.340194 -0.145727 66.618100 -40.985400 0.000008 0.000006 -16.844300 0.969125 -31.583600 -11.754300 -0.000006 -0.000006 0.000954 0.149683 -10.502900
0.000000 0.000000 0.000000 0.000000 0.000000 -0.000000 156.491000 90.146400 220.214000 -81.801100 54.848900 -179.485000 15.735700 0.000005 -0.000001 99.157100 83.790500 -96.852800 8.984550 -0.406207 -0.000000 4.462570 1.906660 4.529290 16.377300 -0.000001 -0.000001 13.473800 18.582800 -5.890690 6.456720 -0.000001 -0.000000 -9.232270 25.512200 6.649040 12.994200 -0.242716 4.980390 -93.127700 6.304400 -63.545000 5.348090 -0.000007 -0.000001 -68.483900 2.136210 -1.308980 24.328600 0.000019 0.000005 17.871400 36.243000 -28.615000 22.291600 -0.000001 0.000005 -14.114700 5.546240 -8.651690 12.994500 -0.242716 -4.980390 88.051400 5.130580 -69.169900 -5.348130 -0.000001 -0.000004 -57.802000 20.775400 -11.947400 -24.328900 0.000322 -0.000009 4.269220 17.031400 -14.301400 -22.291500 -0.000108 -0.000004 -11.544400 5.280590 0.608607 -2.192480 -6.469440 -0.000000 170.761000 -7.079260 -6.295490 39.081100 -0.000007 -0.000012 0.347465 -0.721656 25.710900 40.985400 -0.000006 -0.000013 16.849200 4.950000 -67.902800 11.754300 -0.000000 0.000003 0.001817 0.127341 -11.412900 -2.192510 6.469440 -0.000001 171.572000 4.667330 167.705000 -39.081100 -0.002282 -0.040193 0.305539 -0.130652 66.632600 -40.985400 0.000008 0.000006 -16.207300 -4.311520 -38.281000 -11.754300 -0.000006 -0.000006 0.000637 0.156149 -10.240500
0.000000 0.000000 0.000000 0.000000 0.000000 -0.000000 159.295000 91.124400 218.848000 -80.268000 47.968900 179.689000 15.735700 0.000005 -0.000001 89.597200 83.845000 -86.348900 8.984550 -0.406207 -0.000000 4.557030 -0.177091 6.496360 16.377300 -0.000001 -0.000001 12.361500 17.029300 -5.417830 6.456720 -0.000001 -0.000000 -8.708080 24.351600 5.918110 12.994200 -0.242716 4.980390 -92.847700 6.290260 -65.582200 5.348090 -0.000007 -0.000001 -70.426100 5.628420 -4.124590 24.328600 0.000019 0.000005 19.049300 30.102600 -34.548800 22.291600 -0.000001 0.000005 -7.493710 5.396840 -2.951840 12.994500 -0.242716 -4.980390 88.054200 4.875450 -68.211900 -5.348130 -0.000001 -0.000004 -59.039600 15.453100 -8.194450 -24.328900 0.000322 -0.000009 2.728580 16.601800 -9.471880 -22.291500 -0.000108 -0.000004 -9.072640 5.278620 0.662970 -2.192480 -6.469440 -0.000000 173.177000 -3.648310 -1.014440 39.081100 -0.000007 -0.000012 0.227729 -0.582441 21.355500 40.985400 -0.000006 -0.000013 16.883300 8.698650 -68.241900 11.754300 -0.000000 0.000003 0.001390 0.139495 -10.919800 -2.192510 6.469440 -0.000001 173.835000 5.857040 165.094000 -39.081100 -0.002282 -0.040193 0.219369 -0.108570 63.334500 -40.985400 0.000008 0.000006 -14.250200 -10.707600 -45.550800 -11.754300 -0.000006 -0.000006 0.000514 0.158512 -10.144600
0.000000 0.000000 0.000000 0.000000 0.000000 -0.000000 161.991000 91.966800 217.571000 -79.780400 41.078800 179.426000 15.735700 0.000005 -0.000001 79.301800 83.777200 -75.410700 8.984550 -0.406207 -0.000000 4.560430 -2.414780 7.870640 16.377300 -0.000001 -0.000001 10.693800 15.496900 -4.540980 6.456720 -0.000001 -0.000000 -8.508910 23.235800 5.105020 12.994200 -0.242716 4.980390 -92.546400 6.180990 -67.557600 5.348090 -0.000007 -0.000001 -70.527500 8.077500 -7.613980 24.328600 0.000019 0.000005 20.400900 26.765100 -39.553100 22.291600 -0.000001 0.000005 -0.519202 5.299150 0.052404 12.994500 -0.242716 -4.980390 87.991600 4.809490 -67.302700 -5.348130 -0.000001 -0.000004 -59.674400 7.868450 -4.781820 -24.328900 0.000322 -0.000009 1.669820 15.829500 -6.103710 -22.291500 -0.000108 -0.000004 -5.829090 5.255970 1.269140 -2.192480 -6.469440 -0.000000 175.206000 -0.459365 3.950560 39.081100 -0.000007 -0.000012 0.104274 -0.363310 16.014200 40.985400 -0.000006 -0.000013 16.206000 12.595300 -67.931300 11.754300 -0.000000 0.000003 0.001573 0.134642 -11.116700 -2.192510 6.469440 -0.000001 175.379000 6.300880 163.423000 -39.081100 -0.002282 -0.040193 0.126763 -0.080376 56.952900 -40.985400 0.000008 0.000006 -12.319700 -17.399500 -53.137800 -11.754300 -0.000006 -0.000006 0.000664 0.155622 -10.261900
0.000000 0.000000 0.000000 0.000000 0.000000 -0.000000 164.657000 92.623200 216.220000 -80.194500 34.680300 179.817000 15.735700 0.000005 -0.000001 70.648600 83.506700 -66.508800 8.984550 -0.406207 -0.000000 4.670920 -4.407000 8.453720 16.377300 -0.000001 -0.000001 8.921080 14.091200 -3.612600 6.456720 -0.000001 -0.000000 -8.718340 21.805600 4.740130 12.994200 -0.242716 4.980390 -92.325000 6.166280 -69.293800 5.348090 -0.000007 -0.000001 -68.133700 11.723700 -12.048900 24.328600 0.000019 0.000005 22.212900 24.883500 -44.141500 22.291600 -0.000001 0.000005 3.974910 5.216160 2.303460 12.994500 -0.242716 -4.980390 87.875700 4.918240 -66.604400 -5.348130 -0.000001 -0.000004 -59.617500 0.347078 -1.454700 -24.328900 0.000322 -0.000009 1.252820 15.890000 -4.570490 -22.291500 -0.000108 -0.000004 -3.063800 5.221000 2.180970 -2.192480 -6.469440 -0.000000 177.573000 0.912930 7.247640 39.081100 -0.000007 -0.000012 0.012711 -0.057125 12.544900 40.985400 -0.000006 -0.000013 10.039800 18.572400 -65.147400 11.754300 -0.000000 0.000003 0.002158 0.114317 -11.941000 -2.192510 6.469440 -0.000001 175.832000 5.989180 163.137000 -39.081100 -0.002282 -0.040193 0.052428 -0.044586 47.801200 -40.985400 0.000008 0.000006 -8.674890 -22.331400 -58.249600 -11.754300 -0.000006 -0.000006 0.000722 0.154472 -10.308500
0.000000 0.000000 0.000000 0.000000 0.000000 -0.000000 167.261000 92.913100 214.670000 -81.118200 29.295800 -179.212000 15.735700 0.000005 -0.000001 65.637800 83.122800 -61.550400 8.984550 -0.406207 -0.000000 5.002900 -5.760890 8.423270 16.377300 -0.000001 -0.000001 7.168320 12.685500 -2.763850 6.456720 -0.000001 -0.000000 -8.981060 20.294700 4.536370 12.994200 -0.242716 4.980390 -92.115300 6.111490 -70.866700 5.348090 -0.000007 -0.000001 -64.490300 14.659000 -17.308700 24.328600 0.000019 0.000005 23.032800 23.400400 -46.950000 22.291600 -0.000001 0.000005 4.044880 5.202430 2.653930 12.994500 -0.242716 -4.980390 87.946900 4.670830 -66.239300 -5.348130 -0.000001 -0.000004 -59.619200 -4.313850 1.842300 -24.328900 0.000322 -0.000009 1.137250 15.917500 -4.143730 -22.291500 -0.000108 -0.000004 -1.282720 5.208540 2.504350 -2.192480 -6.469440 -0.000000 178.912000 0.655061 9.962540 39.081100 -0.000007 -0.000012 0.001592 -0.008226 10.960400 40.985400 -0.000006 -0.000013 8.745240 22.766000 -64.077800 11.754300 -0.000000 0.000003 0.002487 0.084550 -13.147900 -2.192510 6.469440 -0.000001 175.124000 4.779120 164.272000 -39.081100 -0.002282 -0.040193 0.021568 -0.023911 37.402100 -40.985400 0.000008 0.000006 -5.931380 -22.133300 -61.586100 -11.754300 -0.000006 -0.000006 0.000527 0.158275 -10.154200
0.000000 0.000000 0.000000 0.000000 0.000000 -0.000000 169.780000 92.944500 212.831000 -82.199900 25.877200 -177.901000 15.735700 0.000005 -0.000001 65.065100 82.804800 -61.237000 8.984550 -0.406207 -0.000000 5.524580 -6.127640 7.949450 16.377300 -0.000001 -0.000001 5.835510 11.575400 -2.073650 6.456720 -0.000001 -0.000000 -9.284730 18.886600 4.216610 12.994200 -0.242716 4.980390 -91.886300 5.802020 -71.955300 5.348090 -0.000007 -0.000001 -61.773900 15.603700 -22.595800 24.328600 0.000019 0.000005 22.850000 22.348600 -47.938500 22.291600 -0.000001 0.000005 1.879400 5.224620 2.093440 12.994500 -0.242716 -4.980390 88.264700 3.936660 -66.189400 -5.348130 -0.000001 -0.000004 -60.228000 -5.825610 4.516910 -24.328900 0.000322 -0.000009 1.093280 15.987000 -3.967350 -22.291500 -0.000108 -0.000004 -0.761999 5.211190 2.437050 -2.192480 -6.469440 -0.000000 179.366000 -0.103740 12.274200 39.081100 -0.000007 -0.000012 0.001385 -0.006918 11.323800 40.985400 -0.000006 -0.000013 9.259350 23.589000 -63.818900 11.754300 -0.000000 0.000003 0.001777 0.039024 -14.993800 -2.192510 6.469440 -0.000001 173.661000 2.670930 166.232000 -39.081100 -0.002282 -0.040193 0.012154 -0.017400 26.946500 -40.985400 0.000008 0.000006 -7.707950 -16.085400 -63.495000 -11.754300 -0.000006 -0.000006 0.000445 0.159802 -10.092200
0.000000 0.000000 0.000000 0.000000 0.000000 -0.000000 172.360000 92.728700 210.684000 -83.058500 24.333300 -176.605000 15.735700 0.000005 -0.000001 66.550700 82.589500 -63.038400 8.984550 -0.406207 -0.000000 6.048340 -5.934780 7.335830 16.377300 -0.000001 -0.000001 4.942700 10.909900 -1.517720 6.456720 -0.000001 -0.000000 -9.351040 17.911700 3.861830 12.994200 -0.242716 4.980390 -91.754600 5.549900 -72.425300 5.348090 -0.000007 -0.000001 -60.228200 15.165000 -26.614900 24.328600 0.000019 0.000005 22.754500 21.784200 -48.497200 22.291600 -0.000001 0.000005 -0.121590 5.196770 2.803210 12.994500 -0.242716 -4.980390 88.604000 3.199400 -66.411500 -5.348130 -0.000001 -0.000004 -60.985000 -5.220780 6.068850 -24.328900 0.000322 -0.000009 1.015610 15.951700 -3.694460 -22.291500 -0.000108 -0.000004 -1.106210 5.200050 2.718590 -2.192480 -6.469440 -0.000000 179.667000 -1.346070 14.455700 39.081100 -0.000007 -0.000012 0.003343 -0.014678 12.833000 40.985400 -0.000006 -0.000013 10.986300 22.409700 -64.328500 11.754300 -0.000000 0.000003 -0.002191 -0.031089 -17.840900 -2.192510 6.469440 -0.000001 172.569000 1.176660 168.151000 -39.081100 -0.002282 -0.040193 -0.008321 0.035687 18.073100 -40.985400 0.000008 0.000006 -12.189600 -6.382630 -64.717200 -11.754300 -0.000006 -0.000006 0.000617 0.156551 -10.224100
